<svg xmlns="http://www.w3.org/2000/svg">
  <defs>
    <g id="face"><circle cx="80" cy="73" r="32" fill="#efc9a1"/><circle cx="68" cy="72" r="3.2" fill="#4f5349"/><circle cx="92" cy="72" r="3.2" fill="#4f5349"/><path d="M70 86q10 9 20 0" fill="none" stroke="#9b7061" stroke-width="3" stroke-linecap="round"/></g>
    <g id="animal-eyes"><ellipse cx="62" cy="72" rx="5" ry="7" fill="#444c43"/><ellipse cx="98" cy="72" rx="5" ry="7" fill="#444c43"/><circle cx="64" cy="70" r="1.7" fill="#fffdf3"/><circle cx="100" cy="70" r="1.7" fill="#fffdf3"/></g>
  </defs>
  <symbol id="bread" viewBox="0 0 160 140"><ellipse cx="80" cy="122" rx="52" ry="7" fill="#ddd5bb"/><path d="M27 84c-18-35 19-56 53-56s71 21 53 56v23q0 10-12 10H39q-12 0-12-10Z" fill="#c99a59"/><path d="M35 83c-14-26 16-45 45-45s60 19 45 45v20H35Z" fill="#efd598"/><path d="m59 51-8 22m29-27-8 25m30-20-8 22" stroke="#fff1c8" stroke-width="7" stroke-linecap="round"/></symbol>
  <symbol id="water" viewBox="0 0 160 140"><ellipse cx="80" cy="125" rx="35" ry="6" fill="#c6dfe4"/><path d="M79 18c-13 21-39 41-39 65a40 40 0 0 0 80 0c0-24-27-47-41-65Z" fill="#85bdd0"/><path d="M55 82q-3 22 19 29" stroke="#e6f5f6" stroke-width="8" fill="none" stroke-linecap="round"/><circle cx="99" cy="76" r="5" fill="#70a9bf"/></symbol>
  <symbol id="milk" viewBox="0 0 160 140"><path d="m53 33 15-17h36l11 18v83q0 7-7 7H58q-7 0-7-7V34Z" fill="#e9e8d5"/><path d="M51 42h64v65H51Z" fill="#aacbd6"/><path d="m53 33 15-17v18h47" fill="#f9f6e7"/><path d="M68 16h36" stroke="#85aabb" stroke-width="7" stroke-linecap="round"/><path d="M84 60c-6 10-15 19-15 27a15 15 0 0 0 30 0c0-8-10-19-15-27Z" fill="#fffdf5"/></symbol>
  <symbol id="salt" viewBox="0 0 160 140"><path d="m60 48-15 58q-3 16 12 17h46q15-1 12-17L100 48Z" fill="#e6ded0"/><path d="m60 65-11 43q-2 9 8 10h46q10-1 8-10l-11-43Z" fill="#fffdf5"/><path d="M60 27q20-9 40 0v24H60Z" fill="#9bacaa"/><ellipse cx="80" cy="27" rx="20" ry="8" fill="#c1ceca"/><g fill="#7d9592"><circle cx="72" cy="26" r="2"/><circle cx="86" cy="25" r="2"/><circle cx="80" cy="30" r="2"/></g><path d="M70 78v21m10-26v28m10-25v21" stroke="#e9e5d9" stroke-width="3" stroke-linecap="round"/></symbol>
  <symbol id="apple" viewBox="0 0 160 140"><ellipse cx="81" cy="122" rx="39" ry="6" fill="#e2c6b3"/><path d="M80 48C38 17 19 65 39 100q16 30 41 17 25 13 42-17c20-36 0-84-42-52Z" fill="#df8d78"/><path d="M80 48q-8-19 3-30" stroke="#90714d" stroke-width="6" stroke-linecap="round" fill="none"/><path d="M85 33q29 5 35-20-29-4-35 20Z" fill="#8aac72"/><path d="M47 68q-9 14 1 28" stroke="#f8c3a6" stroke-width="6" stroke-linecap="round" fill="none"/></symbol>
  <symbol id="pear" viewBox="0 0 160 140"><path d="M80 31c-18 0-15 24-30 41-37 45 7 58 30 55 26 3 62-13 29-55-15-17-11-41-29-41Z" fill="#b5c982"/><path d="M80 35q-6-13 3-23" stroke="#90754e" stroke-width="6" stroke-linecap="round"/><path d="M84 28q27 2 28-16-23-3-28 16Z" fill="#799d61"/><path d="M48 90q-10 17 7 24" stroke="#deebb8" stroke-width="7" fill="none" stroke-linecap="round"/></symbol>
  <symbol id="meat" viewBox="0 0 160 140"><ellipse cx="80" cy="104" rx="61" ry="18" fill="#e8e5d9"/><path d="M30 88c-8-28 15-57 41-58 37-3 67 28 60 53-6 23-28 21-49 17-26-5-44 12-52-12Z" fill="#c3796f"/><path d="M36 83c-6-20 13-44 35-45 31-2 58 24 53 42-4 17-26 17-43 13-24-5-40 10-45-10Z" fill="#e9a295"/><path d="M63 59q11-8 23 2l16 13M52 74q10-8 20 2" stroke="#f4cbb3" stroke-width="5" stroke-linecap="round" fill="none"/><circle cx="100" cy="66" r="9" fill="#fbebd4"/></symbol>
  <symbol id="tea" viewBox="0 0 160 140"><ellipse cx="77" cy="118" rx="52" ry="8" fill="#dedbc6"/><path d="M111 56h10q32 25-6 43h-7" fill="none" stroke="#b1ba91" stroke-width="11"/><path d="M38 53h79l-7 42q-4 21-31 21T45 95Z" fill="#c6d2a8"/><ellipse cx="78" cy="53" rx="40" ry="10" fill="#f4edd8"/><ellipse cx="78" cy="53" rx="32" ry="6" fill="#b5905d"/><path d="M62 34q-9-8 1-20m23 20q-9-8 1-20" stroke="#cec9b4" stroke-width="4" stroke-linecap="round" fill="none"/></symbol>
  <symbol id="cat" viewBox="0 0 160 140"><path d="M40 66 34 20l36 26h21l35-26-5 47q16 41-41 52-57-11-40-53Z" fill="#cbb292"/><path d="m42 53-1-21 21 17m36 0 21-17-2 21" fill="#eac6b8"/><use href="#animal-eyes"/><path d="m73 88 7 7 8-7Z" fill="#87675c"/><path d="M68 101q12 10 25 0m-53-16-18-4m18 14-20 2m100-12 18-4m-18 14 20 2" stroke="#847662" stroke-width="3" fill="none" stroke-linecap="round"/></symbol>
  <symbol id="dog" viewBox="0 0 160 140"><ellipse cx="46" cy="66" rx="21" ry="43" transform="rotate(20 46 66)" fill="#967658"/><ellipse cx="117" cy="66" rx="21" ry="43" transform="rotate(-20 117 66)" fill="#967658"/><ellipse cx="80" cy="76" rx="42" ry="47" fill="#d6b58c"/><use href="#animal-eyes"/><ellipse cx="80" cy="94" rx="25" ry="19" fill="#f8e5c7"/><path d="M69 87q12-8 24 0-4 13-13 13t-11-13" fill="#66564b"/><path d="M74 104v11q7 11 14 0v-11" fill="#da9b95"/></symbol>
  <symbol id="horse" viewBox="0 0 160 140"><path d="M52 40 53 15l18 23m25 0 17-23 2 32" fill="#94775b"/><path d="M56 37q29-15 52 7l7 51-17 27H61L43 99Z" fill="#c49c75"/><path d="M80 33q-14 3-17 19l-7 11 21-4 6-19 10-7" fill="#735e4d"/><path d="M80 47v42" stroke="#f6e8cd" stroke-width="12"/><ellipse cx="80" cy="102" rx="32" ry="22" fill="#e4c7a5"/><circle cx="62" cy="73" r="4" fill="#484941"/><circle cx="99" cy="73" r="4" fill="#484941"/><circle cx="65" cy="100" r="4" fill="#937a62"/><circle cx="94" cy="100" r="4" fill="#937a62"/></symbol>
  <symbol id="cow" viewBox="0 0 160 140"><path d="M51 41q-19-1-14-23l21 15m45 7q18-1 15-22l-21 15" fill="#d2b77a"/><path d="m48 53-26-15q-10 27 22 35m70-20 23-15q10 27-22 35" fill="#a6afa0"/><rect x="40" y="32" width="79" height="84" rx="33" fill="#f3ebd5"/><path d="M44 52q12-25 26-13l-4 36-20 6Z" fill="#819385"/><use href="#animal-eyes"/><ellipse cx="80" cy="102" rx="40" ry="24" fill="#e9b4a8"/><ellipse cx="63" cy="100" rx="5" ry="4" fill="#b5837c"/><ellipse cx="97" cy="100" rx="5" ry="4" fill="#b5837c"/><path d="M68 113q12 5 24 0" stroke="#b5837c" stroke-width="3" fill="none"/></symbol>
  <symbol id="wolf" viewBox="0 0 160 140"><path d="m36 63-7-47 37 28h27l36-28-5 48 17 30-23 7-37 26-41-27-23-7Z" fill="#87988d"/><path d="m42 45-3-17 19 20m44 1 19-21-3 17" fill="#c8b0a0"/><path d="m26 90 38-6 16 11 17-11 37 6-20 21-34 15-35-15Z" fill="#f1e7cf"/><use href="#animal-eyes"/><path d="M68 93q12-9 25 0-3 13-13 13t-12-13Z" fill="#43534a"/><path d="M68 111q12 9 25 0" fill="none" stroke="#52634f" stroke-width="3" stroke-linecap="round"/></symbol>
  <symbol id="fox" viewBox="0 0 160 140"><path d="m35 64-5-48 36 25h27l38-25-6 49 14 25-59 38-59-38Z" fill="#d6a277"/><path d="m43 44-4-15 21 18m42 0 20-18-5 15" fill="#795e51"/><path d="m24 88 39-5 17 18 18-18 39 5-57 40Z" fill="#f8ebd0"/><use href="#animal-eyes"/><path d="M70 99q10-6 20 0-3 11-10 11t-10-11" fill="#68564a"/></symbol>
  <symbol id="bear" viewBox="0 0 160 140"><circle cx="43" cy="39" r="20" fill="#9b8062"/><circle cx="117" cy="39" r="20" fill="#9b8062"/><circle cx="43" cy="39" r="11" fill="#d7b897"/><circle cx="117" cy="39" r="11" fill="#d7b897"/><ellipse cx="80" cy="78" rx="52" ry="47" fill="#b79775"/><use href="#animal-eyes"/><ellipse cx="80" cy="96" rx="25" ry="21" fill="#e8cfad"/><ellipse cx="80" cy="89" rx="12" ry="8" fill="#655c4c"/><path d="M71 105q9 7 18 0" stroke="#8f755e" stroke-width="3" fill="none" stroke-linecap="round"/></symbol>
  <symbol id="hare" viewBox="0 0 160 140"><ellipse cx="56" cy="40" rx="15" ry="37" transform="rotate(-13 56 40)" fill="#a8b3a4"/><ellipse cx="103" cy="40" rx="15" ry="37" transform="rotate(13 103 40)" fill="#a8b3a4"/><ellipse cx="56" cy="35" rx="7" ry="23" transform="rotate(-13 56 35)" fill="#dfb9ac"/><ellipse cx="103" cy="35" rx="7" ry="23" transform="rotate(13 103 35)" fill="#dfb9ac"/><ellipse cx="80" cy="87" rx="44" ry="38" fill="#cbd0ba"/><use href="#animal-eyes"/><ellipse cx="80" cy="99" rx="27" ry="19" fill="#f7edd7"/><path d="m73 91 7 8 8-8" fill="#bd8e83"/><path d="M73 105h14v12H73Z" fill="#fffef5"/></symbol>
  <symbol id="mother" viewBox="0 0 160 140"><path d="M39 91V61q0-43 42-43 42 0 42 43v39Z" fill="#806b55"/><path d="M26 137q3-40 54-40t54 40" fill="#a8b995"/><use href="#face"/><path d="M46 56q22-4 32-20 15 18 35 20" stroke="#806b55" stroke-width="12" fill="none" stroke-linecap="round"/></symbol>
  <symbol id="father" viewBox="0 0 160 140"><path d="M28 137q2-39 52-39t52 39" fill="#92b1ad"/><use href="#face"/><path d="M48 62q-8-38 29-37 37-9 38 37l-16-17-41 8Z" fill="#655e50"/><path d="m62 87 18 5 18-5q-1 24-18 24T62 87" fill="#8e775e"/><path d="M72 94h16" stroke="#f8debd" stroke-width="3"/></symbol>
  <symbol id="brother" viewBox="0 0 160 140"><path d="M31 137q3-34 49-34t49 34" fill="#b2bb82"/><use href="#face"/><path d="M48 61q-7-42 34-36 35-4 34 36l-21-22-17 15-11-8Z" fill="#94785a"/><path d="m74 110 7 8 8-8" stroke="#eff0d0" stroke-width="8"/></symbol>
  <symbol id="sister" viewBox="0 0 160 140"><path d="M33 137q2-33 47-33t47 33" fill="#c4accc"/><circle cx="41" cy="79" r="19" fill="#a88861"/><circle cx="119" cy="79" r="19" fill="#a88861"/><use href="#face"/><path d="M47 60q-3-39 34-35 33 0 34 36L91 42 62 48Z" fill="#a88861"/><path d="m41 52-10-8v18l11-7 11 6V44Z" fill="#dda49d"/></symbol>
  <symbol id="son" viewBox="0 0 160 140"><path d="M35 137q2-30 45-30t45 30" fill="#94b5ca"/><use href="#face"/><path d="M46 61q-3-33 26-35 38-7 42 35l-23-16-19 4-3-6Z" fill="#b19470"/><path d="m73 126 7-12 7 12-7 8Z" fill="#e9d99d"/></symbol>
  <symbol id="daughter" viewBox="0 0 160 140"><path d="M37 137q3-30 43-30t43 30" fill="#deb399"/><use href="#face"/><path d="M48 61q-5-32 30-36 37-4 37 37L93 45 61 48Z" fill="#af9269"/><path d="m109 32-15-8v22l16-7 15 7V24Z" fill="#aca5cb"/><circle cx="80" cy="125" r="6" fill="#f7e5b6"/></symbol>
  <symbol id="grandfather" viewBox="0 0 160 140"><path d="M25 137q6-40 55-40t55 40" fill="#acb398"/><path d="M45 69q-5-38 34-40 39-2 38 40" fill="#c2c9b8"/><use href="#face"/><g fill="none" stroke="#768479" stroke-width="3"><rect x="56" y="64" width="22" height="16" rx="6"/><rect x="85" y="64" width="22" height="16" rx="6"/><path d="M78 70h7"/></g><path d="m58 85 22 10 22-10-5 27-17 12-17-12Z" fill="#e0ddc9"/><path d="M72 101h16" stroke="#ab9c80" stroke-width="3"/></symbol>
  <symbol id="grandmother" viewBox="0 0 160 140"><circle cx="80" cy="25" r="16" fill="#b8c1b0"/><path d="M40 80V60q0-35 40-35t40 35v30" fill="#b8c1b0"/><path d="M26 137q4-39 54-39t54 39" fill="#b5a5bb"/><use href="#face"/><g fill="none" stroke="#968878" stroke-width="3"><ellipse cx="67" cy="72" rx="12" ry="10"/><ellipse cx="94" cy="72" rx="12" ry="10"/><path d="M78 70h4"/></g><path d="M53 47q28-13 56 5" stroke="#d6d7c7" stroke-width="10" stroke-linecap="round"/></symbol>
  <symbol id="head" viewBox="0 0 160 140"><path d="M29 137q4-34 51-34t51 34" fill="#a6bdac"/><use href="#face"/><path d="M48 62q-2-37 31-36 35-4 35 36L95 44 64 53Z" fill="#9c8566"/></symbol>
  <symbol id="eye" viewBox="0 0 160 140"><path d="M20 75q59-66 120 0-62 65-120 0Z" fill="#fffdf0" stroke="#bfc7aa" stroke-width="5"/><circle cx="80" cy="75" r="26" fill="#91b3a0"/><circle cx="80" cy="75" r="13" fill="#526958"/><circle cx="87" cy="66" r="6" fill="#fffef7"/><path d="m29 46 10 12m20-26 4 15m26-18-1 16m28-9-6 13m28 0-10 9" stroke="#9cac8e" stroke-width="4" stroke-linecap="round"/></symbol>
  <symbol id="ear" viewBox="0 0 160 140"><path d="M104 75c28-53-51-73-63-25-7 27 18 30 21 55 4 27 35 20 35-2 0-17 1-21 7-28Z" fill="#e5bf9c"/><path d="M92 62q12-20-10-27-25-4-28 20m13 21q-6-20 12-21 18 2 4 25v18" stroke="#bb9076" stroke-width="6" stroke-linecap="round" fill="none"/></symbol>
  <symbol id="nose" viewBox="0 0 160 140"><path d="M65 24q-8 37-22 58-17 21 11 29 25 15 55-2 23-12 0-29-12-24-15-56Z" fill="#ecc8a5"/><path d="M52 97q10-11 18 0m20 0q10-11 18 0" stroke="#b98c73" stroke-width="5" stroke-linecap="round" fill="none"/><path d="M70 43 63 75" stroke="#f9e2c4" stroke-width="7" stroke-linecap="round"/></symbol>
  <symbol id="hand" viewBox="0 0 160 140"><path d="M59 124c-16-17-22-26-28-43-7-19 8-21 19-1V38q0-15 12-7v33-43q10-12 17 0v42-42q11-9 17 3v42-31q13-8 15 7v45l9-17q15-10 13 7l-18 44-9 10H64Z" fill="#e8c7a1"/><path d="M65 85q20-8 34 1M79 96v18" stroke="#c3a27e" stroke-width="4" stroke-linecap="round" fill="none"/></symbol>
  <symbol id="leg" viewBox="0 0 160 140"><path d="M54 16h43l-5 57-3 24 35 12q21 14-2 21H58q-15-2-9-16l10-25Z" fill="#e7c49d"/><path d="M53 16h45l-2 36H55Z" fill="#a0b8a9"/><path d="M57 126h66" stroke="#c4a17a" stroke-width="4" stroke-linecap="round"/></symbol>
  <symbol id="tooth" viewBox="0 0 160 140"><path d="M80 33c-39-27-61 2-43 40 9 22 7 53 24 54 12 0 4-41 19-42 16 0 6 42 20 42 16 0 17-34 23-54 17-40-8-65-43-40Z" fill="#fffcef" stroke="#c5d1bb" stroke-width="5"/><path d="M62 42q17 12 35-1" stroke="#e3e9d6" stroke-width="6" stroke-linecap="round" fill="none"/><path d="M41 48q-3 12 5 25" stroke="#fff" stroke-width="5" stroke-linecap="round"/></symbol>
  <symbol id="neck" viewBox="0 0 160 140"><path d="M26 135q2-31 35-37V70h38v28q33 6 36 37" fill="#e7c19b"/><circle cx="80" cy="42" r="29" fill="#efcda9"/><path d="M26 135q0-27 32-35 21 18 44 0 31 8 33 35" fill="#a8bfaf"/><path d="M64 83h32" stroke="#bf916b" stroke-width="5" stroke-linecap="round"/><path d="m126 69-18 12 18 8" stroke="#b59cc2" stroke-width="5" stroke-linecap="round" stroke-linejoin="round" fill="none"/></symbol>
  <symbol id="hello" viewBox="0 0 160 140"><path d="M32 27h94q13 0 13 13v54q0 12-13 12H66l-22 18v-18H32q-13 0-13-12V40q0-13 13-13Z" fill="#a9c3a9"/><circle cx="57" cy="64" r="5" fill="#fffbed"/><circle cx="102" cy="64" r="5" fill="#fffbed"/><path d="M60 80q20 19 40 0" fill="none" stroke="#fffbed" stroke-width="5" stroke-linecap="round"/></symbol>
  <symbol id="thanks" viewBox="0 0 160 140"><path d="M80 119 30 72C-1 39 41 8 80 47c38-39 81-8 51 25Z" fill="#d99a92"/><path d="M43 45q-13 2-11 17" stroke="#f2c8b8" stroke-width="7" stroke-linecap="round" fill="none"/><path d="m122 18 3 8 8 3-8 3-3 8-3-8-8-3 8-3Z" fill="#d5b66a"/></symbol>
  <symbol id="yes" viewBox="0 0 160 140"><circle cx="80" cy="70" r="49" fill="#a4c08e"/><path d="m52 69 20 22 40-43" stroke="#fffbea" stroke-width="12" fill="none" stroke-linecap="round" stroke-linejoin="round"/></symbol>
  <symbol id="bye" viewBox="0 0 160 140"><use href="#hand"/><path d="m29 30-10-4m15-7-4-10m90 27 12-4m-17-8 8-10" stroke="#c5ad69" stroke-width="5" stroke-linecap="round"/></symbol>
  <symbol id="sun" viewBox="0 0 160 140"><circle cx="80" cy="70" r="32" fill="#eac367"/><path d="M80 16v10m0 89v10M25 70h10m90 0h10M41 31l8 8m63 63 8 8M40 110l9-9m63-64 8-8" stroke="#dbc07b" stroke-width="6" stroke-linecap="round"/><circle cx="70" cy="66" r="3" fill="#a88b48"/><circle cx="91" cy="66" r="3" fill="#a88b48"/><path d="M72 81q8 7 16 0" stroke="#a88b48" stroke-width="3" fill="none" stroke-linecap="round"/></symbol>
  <symbol id="morning" viewBox="0 0 160 140"><circle cx="80" cy="77" r="34" fill="#e8c26d"/><path d="M80 19v12M30 41l9 9m82 0 9-9" stroke="#dec282" stroke-width="5" stroke-linecap="round"/><path d="M22 96h116" stroke="#93b7a4" stroke-width="7" stroke-linecap="round"/><path d="M41 114h78" stroke="#bbd0b6" stroke-width="6" stroke-linecap="round"/></symbol>
  <symbol id="sorry" viewBox="0 0 160 140"><circle cx="80" cy="68" r="44" fill="#d4c3de"/><circle cx="65" cy="66" r="4" fill="#8b7798"/><circle cx="96" cy="66" r="4" fill="#8b7798"/><path d="M68 92q12-13 25 0" stroke="#8b7798" stroke-width="4" stroke-linecap="round" fill="none"/><path d="m41 91-9 17q8 14 16 0Z" fill="#9bbfd2"/></symbol>
  <symbol id="wait" viewBox="0 0 160 140"><circle cx="80" cy="71" r="47" fill="#e6d5b6"/><circle cx="80" cy="71" r="37" fill="#fcf7e9"/><path d="M80 46v27l19 12" stroke="#9f977c" stroke-width="6" stroke-linecap="round" fill="none"/><path d="M62 13h36" stroke="#b9b099" stroke-width="7" stroke-linecap="round"/><path d="M80 25v-9" stroke="#b9b099" stroke-width="6"/></symbol>
</svg>